<svg width="32" height="52" viewBox="0 0 32 52" fill="none" xmlns="http://www.w3.org/2000/svg">
<path d="M31.37 46.44L28 45.3C28 45.3 29.2 38.3 19.13 34.85C19.13 34.85 7.77998 31.32 9.12998 24.5C9.12998 24.5 8.28998 20.96 14.04 16.97C14.1779 16.9348 14.3217 16.9295 14.4618 16.9543C14.6019 16.9792 14.7351 17.0337 14.8525 17.1141C14.9699 17.1946 15.0687 17.2992 15.1424 17.4209C15.2161 17.5426 15.263 17.6787 15.28 17.82C15.28 17.82 9.07997 24.59 12.53 28.05C17.22 32.76 23.53 33.25 27.81 36.45C29.88 38 32.82 39.72 31.37 46.44Z" fill="#00AF41"/>
<path d="M21.0001 14.55C20.6878 14.5362 20.3831 14.4494 20.1105 14.2966C19.8378 14.1438 19.6048 13.9292 19.4301 13.67L26.8601 9.3L31.0001 9.13L21.0001 14.55Z" fill="#00AF41"/>
<path d="M16.91 50.12L11.6 51.78C11.6 51.78 8.73996 44.26 9.69996 41.09C10.66 37.92 12.58 36.21 15.62 34.17L17.33 35.17C17.33 35.17 6.86996 42 16.91 50.12Z" fill="#0082CA"/>
<path d="M21.85 32.2L20.05 31C20.05 31 30.05 23.28 21.3 18.22C21.3 18.22 19.43 16.78 13.9 15.6C13.9 15.6 5.12 14.38 0 13.6L3.68 12.6C9.85073 12.6902 15.9586 13.8543 21.73 16.04C23.163 16.5543 24.4622 17.3838 25.5318 18.4672C26.6015 19.5507 27.4142 20.8605 27.91 22.3C29.33 27.07 23.64 31.65 21.85 32.2Z" fill="#0082CA"/>
<path d="M21.32 28.7L15.77 29.12C15.77 29.12 14.21 28.66 15.52 27.98L21 27.6C21 27.6 22.6 28 21.32 28.7Z" fill="#00AF41"/>
<path d="M23.24 25.22L14.34 25.74C14.34 25.74 11.48 24.8 13.59 23.65L22.72 23.1C22.72 23.1 25.47 24 23.24 25.22Z" fill="#00AF41"/>
<path d="M20.78 21.16L15.23 21.55C15.23 21.55 13.4 21.22 14.79 20.47L20.25 20C20.25 20 21.87 20.5 20.78 21.16Z" fill="#00AF41"/>
<path d="M15.6701 11.77C13.5834 12.3633 12.2234 11.6733 11.5901 9.70001L10.0001 4.75001C9.37339 2.75001 10.1034 1.46335 12.1901 0.890013L14.5901 0.210013C16.6767 -0.383321 18.0367 0.306679 18.6701 2.28001L20.2401 7.22001C20.8667 9.22001 20.1367 10.5067 18.0501 11.08L15.6701 11.77ZM15.1101 10L17.5101 9.32001C18.1767 9.12001 18.4001 8.62668 18.1801 7.84001L16.6001 2.87001C16.3534 2.08335 15.8801 1.79335 15.1801 2.00001L12.7801 2.68001C12.1134 2.88001 11.8901 3.37335 12.1101 4.16001L13.6901 9.10001C13.9367 9.88668 14.4101 10.1867 15.1101 10Z" fill="#00AF41"/>
</svg>
