<svg width="240" height="52" viewBox="0 0 240 52" fill="none" xmlns="http://www.w3.org/2000/svg">
<g clip-path="url(#clip0_106_1255)">
<path d="M41 39.14V10.76L43.18 9.76001H53.36C57.4667 9.76001 59.52 11.7033 59.52 15.59V18.78C59.584 20.0255 59.1567 21.2463 58.33 22.18C60.33 23.2667 61.33 25.18 61.33 27.92V32.31C61.33 36.8433 58.9333 39.11 54.14 39.11L41 39.14ZM45.11 21.14H53.32C54.6867 21.14 55.37 20.3633 55.37 18.81V15.62C55.37 14.0667 54.6867 13.29 53.32 13.29H45.15L45.11 21.14ZM45.11 35.64H54.11C56.1633 35.64 57.19 34.5367 57.19 32.33V27.94C57.19 25.7333 56.1633 24.63 54.11 24.63H45.11V35.64Z" fill="#231F20"/>
<path d="M71 39.14C66.8933 39.14 64.84 37.1967 64.84 33.31V30.65C64.84 26.7633 66.8933 24.82 71 24.82H75.31C76.0332 24.8245 76.7416 25.0249 77.36 25.4V23.59C77.36 22.0367 76.6766 21.26 75.31 21.26H68V21.07L69.64 17.76H75.35C79.4566 17.76 81.51 19.7033 81.51 23.59V38.17L77.61 39.92H77.4V38.56C76.798 38.9713 76.0782 39.1749 75.35 39.14H71ZM71 35.64H75.31C76.6766 35.64 77.36 34.8633 77.36 33.31V30.65C77.36 29.0967 76.6766 28.32 75.31 28.32H71C69.6666 28.3133 69 29.09 69 30.65V33.31C69 34.8633 69.6666 35.64 71 35.64Z" fill="#231F20"/>
<path d="M85.37 39.92V23.59C85.37 19.7033 87.4233 17.76 91.53 17.76H96.25C100.357 17.76 102.41 19.7033 102.41 23.59V38.17L98.51 39.92H98.3V23.59C98.3 22.0367 97.6167 21.26 96.25 21.26H91.53C90.1633 21.26 89.48 22.0367 89.48 23.59V38.17L85.58 39.92H85.37Z" fill="#231F20"/>
<path d="M112.46 39.14C108.353 39.14 106.3 37.1967 106.3 33.31V23.59C106.3 19.7033 108.353 17.76 112.46 17.76H117.18C117.914 17.7017 118.643 17.9153 119.23 18.36V10.76L123.14 9H123.35V33.3C123.35 37.1867 121.297 39.13 117.19 39.13L112.46 39.14ZM112.46 35.64H117.18C118.547 35.64 119.23 34.8633 119.23 33.31V23.59C119.23 22.0367 118.547 21.26 117.18 21.26H112.46C111.093 21.26 110.41 22.0367 110.41 23.59V33.31C110.41 34.8633 111.093 35.64 112.46 35.64Z" fill="#231F20"/>
<path d="M133.39 39.14C129.283 39.14 127.23 37.1967 127.23 33.31V30.65C127.23 26.7633 129.283 24.82 133.39 24.82H137.7C138.423 24.8245 139.132 25.0249 139.75 25.4V23.59C139.75 22.0367 139.067 21.26 137.7 21.26H130.35V21.07L132 17.76H137.71C141.817 17.76 143.87 19.7033 143.87 23.59V38.17L140 39.92H139.79V38.56C139.188 38.9713 138.468 39.1749 137.74 39.14H133.39ZM133.39 35.64H137.7C139.067 35.64 139.75 34.8633 139.75 33.31V30.65C139.75 29.0967 139.067 28.32 137.7 28.32H133.39C132.023 28.32 131.34 29.0967 131.34 30.65V33.31C131.34 34.8633 132.023 35.64 133.39 35.64Z" fill="#231F20"/>
<path d="M162.94 39.92V10.76L165.12 9.76001H178.12V10L176.46 13.34H167V22.71H178.09V22.9L176.43 26.24H167V38.17L163.1 39.92H162.94Z" fill="#231F20"/>
<path d="M187.77 39.14C183.663 39.14 181.61 37.1967 181.61 33.31V23.59C181.61 19.7033 183.663 17.76 187.77 17.76H192.49C196.597 17.76 198.65 19.7033 198.65 23.59V33.31C198.65 37.1967 196.597 39.14 192.49 39.14H187.77ZM187.77 35.64H192.49C193.857 35.64 194.54 34.8633 194.54 33.31V23.59C194.54 22.0367 193.857 21.26 192.49 21.26H187.77C186.403 21.26 185.72 22.0367 185.72 23.59V33.31C185.72 34.8633 186.403 35.64 187.77 35.64Z" fill="#231F20"/>
<path d="M203.57 39.92V10.76L207.47 9H207.68V38.17L203.78 39.92H203.57Z" fill="#231F20"/>
<path d="M213.62 39.92V10.76L217.52 9H217.73V38.17L213.83 39.92H213.62Z" fill="#231F20"/>
<path d="M228.8 39.14C224.693 39.14 222.64 37.1967 222.64 33.31V23.59C222.64 19.7033 224.693 17.76 228.8 17.76H233.52C237.627 17.76 239.68 19.7033 239.68 23.59V33.31C239.68 37.1967 237.627 39.14 233.52 39.14H228.8ZM228.8 35.64H233.52C234.887 35.64 235.57 34.8633 235.57 33.31V23.59C235.57 22.0367 234.887 21.26 233.52 21.26H228.8C227.433 21.26 226.75 22.0367 226.75 23.59V33.31C226.75 34.8633 227.433 35.64 228.8 35.64Z" fill="#231F20"/>
<path d="M31.37 46.44L28 45.3C28 45.3 29.2 38.3 19.13 34.85C19.13 34.85 7.77998 31.32 9.12998 24.5C9.12998 24.5 8.28998 20.96 14.04 16.97C14.1779 16.9348 14.3217 16.9295 14.4618 16.9543C14.6019 16.9792 14.7351 17.0337 14.8525 17.1141C14.9699 17.1946 15.0687 17.2992 15.1424 17.4209C15.2161 17.5426 15.263 17.6787 15.28 17.82C15.28 17.82 9.07997 24.59 12.53 28.05C17.22 32.76 23.53 33.25 27.81 36.45C29.88 38 32.82 39.72 31.37 46.44Z" fill="#00AF41"/>
<path d="M21.0001 14.55C20.6878 14.5362 20.3831 14.4494 20.1105 14.2966C19.8378 14.1438 19.6048 13.9292 19.4301 13.67L26.8601 9.3L31.0001 9.13L21.0001 14.55Z" fill="#00AF41"/>
<path d="M16.91 50.12L11.6 51.78C11.6 51.78 8.73996 44.26 9.69996 41.09C10.66 37.92 12.58 36.21 15.62 34.17L17.33 35.17C17.33 35.17 6.86996 42 16.91 50.12Z" fill="#0082CA"/>
<path d="M21.85 32.2L20.05 31C20.05 31 30.05 23.28 21.3 18.22C21.3 18.22 19.43 16.78 13.9 15.6C13.9 15.6 5.12 14.38 0 13.6L3.68 12.6C9.85073 12.6902 15.9586 13.8543 21.73 16.04C23.163 16.5543 24.4622 17.3838 25.5318 18.4672C26.6015 19.5507 27.4142 20.8605 27.91 22.3C29.33 27.07 23.64 31.65 21.85 32.2Z" fill="#0082CA"/>
<path d="M21.32 28.7L15.77 29.12C15.77 29.12 14.21 28.66 15.52 27.98L21 27.6C21 27.6 22.6 28 21.32 28.7Z" fill="#00AF41"/>
<path d="M23.24 25.22L14.34 25.74C14.34 25.74 11.48 24.8 13.59 23.65L22.72 23.1C22.72 23.1 25.47 24 23.24 25.22Z" fill="#00AF41"/>
<path d="M20.78 21.16L15.23 21.55C15.23 21.55 13.4 21.22 14.79 20.47L20.25 20C20.25 20 21.87 20.5 20.78 21.16Z" fill="#00AF41"/>
<path d="M15.6701 11.77C13.5834 12.3633 12.2234 11.6733 11.5901 9.70001L10.0001 4.75001C9.37339 2.75001 10.1034 1.46335 12.1901 0.890013L14.5901 0.210013C16.6767 -0.383321 18.0367 0.306679 18.6701 2.28001L20.2401 7.22001C20.8667 9.22001 20.1367 10.5067 18.0501 11.08L15.6701 11.77ZM15.1101 10L17.5101 9.32001C18.1767 9.12001 18.4001 8.62668 18.1801 7.84001L16.6001 2.87001C16.3534 2.08335 15.8801 1.79335 15.1801 2.00001L12.7801 2.68001C12.1134 2.88001 11.8901 3.37335 12.1101 4.16001L13.6901 9.10001C13.9367 9.88668 14.4101 10.1867 15.1101 10Z" fill="#00AF41"/>
</g>
<defs>
<clipPath id="clip0_106_1255">
<rect width="239.68" height="51.78" fill="white"/>
</clipPath>
</defs>
</svg>
