<svg id="Layer_1" data-name="Layer 1" xmlns="http://www.w3.org/2000/svg" viewBox="0 0 239.68 51.78"><defs><style>.cls-1{fill:#231f20;}.cls-2{fill:#00af41;}.cls-3{fill:#0082ca;}.cls-4{fill:#0098ce;}</style></defs><title>Bandafollo</title><path class="cls-1" d="M41,39.14V10.76l2.18-1H53.36q6.16,0,6.16,5.83v3.19a4.76,4.76,0,0,1-1.19,3.4q3,1.63,3,5.74v4.39q0,6.8-7.19,6.8Zm4.11-18h8.21q2.05,0,2.05-2.33V15.62q0-2.33-2.05-2.33H45.15Zm0,14.5h9q3.08,0,3.08-3.31V27.94q0-3.31-3.08-3.31h-9Z"/><path class="cls-1" d="M71,39.14q-6.16,0-6.16-5.83V30.65q0-5.83,6.16-5.83h4.31a4,4,0,0,1,2.05.58V23.59q0-2.33-2.05-2.33H68v-.19l1.64-3.31h5.71q6.16,0,6.16,5.83V38.17l-3.9,1.75h-.21V38.56a3.35,3.35,0,0,1-2.05.58Zm0-3.5h4.31q2.05,0,2.05-2.33V30.65q0-2.33-2.05-2.33H71Q69,28.31,69,30.65v2.66Q69,35.64,71,35.64Z"/><path class="cls-1" d="M85.37,39.92V23.59q0-5.83,6.16-5.83h4.72q6.16,0,6.16,5.83V38.17l-3.9,1.75h-.21V23.59q0-2.33-2.05-2.33H91.53q-2.05,0-2.05,2.33V38.17l-3.9,1.75Z"/><path class="cls-1" d="M112.46,39.14q-6.16,0-6.16-5.83V23.59q0-5.83,6.16-5.83h4.72a3,3,0,0,1,2.05.6v-7.6L123.14,9h.21v24.3q0,5.83-6.16,5.83Zm0-3.5h4.72q2.05,0,2.05-2.33V23.59q0-2.33-2.05-2.33h-4.72q-2.05,0-2.05,2.33v9.72Q110.41,35.64,112.46,35.64Z"/><path class="cls-1" d="M133.39,39.14q-6.16,0-6.16-5.83V30.65q0-5.83,6.16-5.83h4.31a4,4,0,0,1,2.05.58V23.59q0-2.33-2.05-2.33h-7.35v-.19L132,17.76h5.71q6.16,0,6.16,5.83V38.17L140,39.92h-.21V38.56a3.35,3.35,0,0,1-2.05.58Zm0-3.5h4.31q2.05,0,2.05-2.33V30.65q0-2.33-2.05-2.33h-4.31q-2.05,0-2.05,2.33v2.66Q131.34,35.64,133.39,35.64Z"/><path class="cls-1" d="M162.94,39.92V10.76l2.18-1h13V10l-1.66,3.34H167v9.37h11.09v.19l-1.66,3.34H167V38.17l-3.9,1.75Z"/><path class="cls-1" d="M187.77,39.14q-6.16,0-6.16-5.83V23.59q0-5.83,6.16-5.83h4.72q6.16,0,6.16,5.83v9.72q0,5.83-6.16,5.83Zm0-3.5h4.72q2.05,0,2.05-2.33V23.59q0-2.33-2.05-2.33h-4.72q-2.05,0-2.05,2.33v9.72Q185.72,35.64,187.77,35.64Z"/><path class="cls-1" d="M203.57,39.92V10.76L207.47,9h.21V38.17l-3.9,1.75Z"/><path class="cls-1" d="M213.62,39.92V10.76L217.52,9h.21V38.17l-3.9,1.75Z"/><path class="cls-1" d="M228.8,39.14q-6.16,0-6.16-5.83V23.59q0-5.83,6.16-5.83h4.72q6.16,0,6.16,5.83v9.72q0,5.83-6.16,5.83Zm0-3.5h4.72q2.05,0,2.05-2.33V23.59q0-2.33-2.05-2.33H228.8q-2.05,0-2.05,2.33v9.72Q226.75,35.64,228.8,35.64Z"/><path class="cls-2" d="M31.37,46.44,28,45.3s1.2-7-8.87-10.45c0,0-11.35-3.53-10-10.35,0,0-.84-3.54,4.91-7.53a1,1,0,0,1,1.24.85s-6.2,6.77-2.75,10.23c4.69,4.71,11,5.2,15.28,8.4C29.88,38,32.82,39.72,31.37,46.44Z"/><path class="cls-2" d="M21,14.55a2,2,0,0,1-1.57-.88L26.86,9.3,31,9.13Z"/><path class="cls-3" d="M16.91,50.12,11.6,51.78S8.74,44.26,9.7,41.09s2.88-4.88,5.92-6.92l1.71,1S6.87,42,16.91,50.12Z"/><path class="cls-3" d="M21.85,32.2,20.05,31s10-7.72,1.25-12.78c0,0-1.87-1.44-7.4-2.62,0,0-8.78-1.22-13.9-2l3.68-1a53.16,53.16,0,0,1,18.05,3.44,10.17,10.17,0,0,1,6.18,6.26C29.33,27.07,23.64,31.65,21.85,32.2Z"/><path class="cls-4" d="M20.68,28.67"/><path class="cls-2" d="M21.32,28.7l-5.55.42s-1.56-.46-.25-1.14L21,27.6S22.6,28,21.32,28.7Z"/><path class="cls-2" d="M23.24,25.22l-8.9.52s-2.86-.94-.75-2.09l9.13-.55S25.47,24,23.24,25.22Z"/><path class="cls-2" d="M20.78,21.16l-5.55.39s-1.83-.33-.44-1.08L20.25,20S21.87,20.5,20.78,21.16Z"/><path class="cls-2" d="M15.67,11.77q-3.13.89-4.08-2.07L10,4.75q-.94-3,2.19-3.86l2.4-.68q3.13-.89,4.08,2.07l1.57,4.94q.94,3-2.19,3.86ZM15.11,10l2.4-.68q1-.3.67-1.48L16.6,2.87Q16.23,1.69,15.18,2l-2.4.68q-1,.3-.67,1.48L13.69,9.1Q14.06,10.28,15.11,10Z"/></svg>